HIERARCHY
ROOT Hips
{
    OFFSET 0.000000 0.000000 0.000000
    CHANNELS 6 Xposition Yposition Zposition Zrotation Xrotation Yrotation
    JOINT Spine
    {
        OFFSET -0.000000 7.897928 0.000000
        CHANNELS 3 Zrotation Xrotation Yrotation
        JOINT Spine1
        {
            OFFSET -0.000000 22.881742 0.000000
            CHANNELS 3 Zrotation Xrotation Yrotation
            JOINT Neck
            {
                OFFSET -0.000000 22.787771 2.071616
                CHANNELS 3 Zrotation Xrotation Yrotation
                JOINT Head
                {
                    OFFSET -0.000000 13.484266 -1.926324
                    CHANNELS 3 Zrotation Xrotation Yrotation
                    End Site
                    {
                        OFFSET -0.000000 24.079046 0.000000
                    }
                }
            }
            JOINT LeftShoulder
            {
                OFFSET 3.854963 21.096247 -0.110468
                CHANNELS 3 Zrotation Xrotation Yrotation
                JOINT LeftArm
                {
                    OFFSET 10.572188 0.000000 0.000000
                    CHANNELS 3 Zrotation Xrotation Yrotation
                    JOINT LeftForeArm
                    {
                        OFFSET 34.932854 0.000000 0.000000
                        CHANNELS 3 Zrotation Xrotation Yrotation
                        JOINT LeftHand
                        {
                            OFFSET 23.279285 0.000000 0.000000
                            CHANNELS 3 Zrotation Xrotation Yrotation
                            End Site
                            {
                                OFFSET 14.447429 0.000000 0.000000
                            }
                        }
                    }
                }
            }
            JOINT RightShoulder
            {
                OFFSET -3.825334 21.096247 -0.110468
                CHANNELS 3 Zrotation Xrotation Yrotation
                JOINT RightArm
                {
                    OFFSET -10.572188 0.000000 0.000000
                    CHANNELS 3 Zrotation Xrotation Yrotation
                    JOINT RightForeArm
                    {
                        OFFSET -34.932854 0.000000 0.000000
                        CHANNELS 3 Zrotation Xrotation Yrotation
                        JOINT RightHand
                        {
                            OFFSET -23.279285 0.000000 0.000000
                            CHANNELS 3 Zrotation Xrotation Yrotation
                            End Site
                            {
                                OFFSET -14.447429 0.000000 0.000000
                            }
                        }
                    }
                }
            }
        }
    }
    JOINT LeftUpLeg
    {
        OFFSET 9.631618 0.000000 0.000000
        CHANNELS 3 Zrotation Xrotation Yrotation
        JOINT LeftLeg
        {
            OFFSET -0.000000 -35.385456 0.000000
            CHANNELS 3 Zrotation Xrotation Yrotation
            JOINT LeftFoot
            {
                OFFSET -0.000000 -43.284000 0.000000
                CHANNELS 3 Zrotation Xrotation Yrotation
                JOINT LeftToeBase
                {
                    OFFSET -0.000000 -6.260552 14.447429
                    CHANNELS 3 Zrotation Xrotation Yrotation
                    End Site
                    {
                        OFFSET -0.000000 0.000000 3.852648
                    }
                }
            }
        }
    }
    JOINT RightUpLeg
    {
        OFFSET -9.631618 0.000000 0.000000
        CHANNELS 3 Zrotation Xrotation Yrotation
        JOINT RightLeg
        {
            OFFSET -0.000000 -35.385456 0.000000
            CHANNELS 3 Zrotation Xrotation Yrotation
            JOINT RightFoot
            {
                OFFSET -0.000000 -43.284000 0.000000
                CHANNELS 3 Zrotation Xrotation Yrotation
                JOINT RightToeBase
                {
                    OFFSET -0.000000 -6.260552 14.447429
                    CHANNELS 3 Zrotation Xrotation Yrotation
                    End Site
                    {
                        OFFSET -0.000000 0.000000 3.852648
                    }
                }
            }
        }
    }
}
MOTION
Frames:    13
Frame Time:    0.008333
19.729445    88.683365    47.220798    -2.047775    -1.161931    87.356567    0.081707    -4.772826    -0.300498    1.836844    3.282566    -0.356675    -2.568527    13.428581    0.937841    4.466525    0.624059    1.658952    18.795090    0.963742    7.075058    -17.651331    13.124674    -4.407777    3.235715    -9.162355    0.340217    -2.083682    -9.125836    -2.562506    -18.064842    0.134904    4.701325    16.991163    8.673554    -0.790864    -0.420754    -3.683851    -0.264247    -1.828794    -3.758938    4.651152    2.029422    1.254938    0.138669    -4.689319    8.485618    -5.029315    1.916320    -9.193130    18.763329    0.000000    0.000000    0.000000    -1.473559    -3.685941    -0.902038    4.752758    11.908671    -0.087680    -1.707695    -7.276164    -9.803592    0.000000    0.000000    0.000000    
19.650475    88.688553    47.180264    -2.009518    -1.195503    87.256943    0.065649    -4.618027    -0.276767    1.908958    3.187049    -0.332772    -2.375466    13.436646    0.941349    4.280701    0.640637    1.631122    18.874901    0.954120    7.059975    -17.698006    13.074398    -4.356730    3.211492    -9.232574    0.369058    -2.032051    -9.197434    -2.590263    -18.126324    0.131456    4.680923    16.889826    8.684454    -0.725151    -0.448708    -3.984152    -0.219281    -1.733865    -4.057139    4.775827    2.047810    1.155427    0.004788    -4.728297    8.691843    -5.292490    2.061545    -9.231437    19.217554    0.000000    0.000000    0.000000    -1.530548    -4.028980    -0.811872    4.840937    12.434537    -0.200852    -1.605390    -7.318051    -9.630580    0.000000    0.000000    0.000000    
19.608782    88.684174    47.173119    -2.016084    -1.261654    87.181007    0.047466    -4.570745    -0.258676    2.066603    3.152743    -0.317414    -2.359197    13.388293    0.955674    4.215925    0.730477    1.634423    18.838165    0.940430    7.075866    -17.705624    13.087249    -4.341933    3.225158    -9.355694    0.382903    -1.960636    -9.322601    -2.589350    -18.236458    0.111746    4.652410    16.848759    8.635037    -0.656712    -0.444451    -4.032996    -0.251478    -1.662015    -4.105807    4.962113    2.128440    1.067541    -0.016877    -4.762061    8.825190    -5.422866    2.128942    -9.287534    19.418104    0.000000    0.000000    0.000000    -1.529055    -4.260939    -0.740276    4.929916    12.757425    -0.222566    -1.565526    -7.338326    -9.557844    0.000000    0.000000    0.000000    
19.567801    88.681061    47.171005    -2.001639    -1.350587    87.145638    0.044318    -4.484012    -0.236884    2.195546    3.090321    -0.297951    -2.237220    13.400244    0.934338    4.085005    0.730687    1.590850    18.890104    0.947816    7.043220    -17.783955    13.054994    -4.333310    3.263697    -9.405169    0.412843    -1.956676    -9.372970    -2.599905    -18.259964    0.058125    4.590060    16.764725    8.612759    -0.621602    -0.471429    -4.048742    -0.234844    -1.501436    -4.114830    4.978611    2.241368    0.992826    -0.085214    -4.810812    8.931355    -5.230325    2.194033    -9.302809    19.303135    0.000000    0.000000    0.000000    -1.507274    -4.475307    -0.679196    4.981807    13.097259    -0.135551    -1.465557    -7.359015    -9.516846    0.000000    0.000000    0.000000    
19.514585    88.674370    47.159367    -2.010569    -1.429815    87.081894    0.083235    -4.413289    -0.229181    2.282955    3.042051    -0.293118    -2.197260    13.359432    0.941207    4.019064    0.779162    1.586994    18.894432    0.926697    7.069048    -17.821733    13.052950    -4.296324    3.264486    -9.427150    0.385562    -1.835279    -9.398644    -2.489479    -18.319387    -0.000423    4.578203    16.707401    8.520476    -0.563107    -0.461724    -3.983475    -0.203650    -1.745830    -4.060194    4.990469    2.328601    0.889437    -0.142551    -4.845243    9.057768    -5.240031    2.302259    -9.335851    19.413914    0.000000    0.000000    0.000000    -1.506750    -4.805679    -0.509902    5.101326    13.554461    -0.256621    -1.399592    -7.396441    -9.419061    0.000000    0.000000    0.000000    
19.453144    88.671829    47.144989    -2.032620    -1.524924    87.002296    0.127755    -4.374719    -0.227720    2.416084    3.054588    -0.297033    -2.182278    13.375291    0.966105    3.916978    0.656873    1.602377    18.809856    0.957544    7.098982    -17.798626    12.990530    -4.234866    3.222014    -9.393965    0.336586    -1.759254    -9.366894    -2.403639    -18.428244    -0.106219    4.581851    16.661934    8.437928    -0.496902    -0.444331    -3.910407    -0.192343    -1.939390    -3.995656    5.001130    2.422606    0.779927    -0.195066    -4.865310    9.194930    -5.567874    2.367101    -9.414622    19.918966    0.000000    0.000000    0.000000    -1.497160    -5.189143    -0.385532    5.217038    14.057087    -0.534451    -1.265981    -7.413667    -9.103477    0.000000    0.000000    0.000000    
19.390789    88.669098    47.130527    -2.040704    -1.643275    86.889542    0.224947    -4.296585    -0.214277    2.497623    3.026709    -0.288774    -2.142339    13.316956    0.992562    3.828097    0.716198    1.615801    18.867783    0.865309    7.203118    -17.911192    13.112247    -4.217094    3.206114    -9.356199    0.319323    -1.634831    -9.332509    -2.308504    -18.476196    -0.200314    4.616954    16.587305    8.315824    -0.436623    -0.496001    -3.744210    -0.202672    -1.833610    -3.826252    5.080462    2.540783    0.705652    -0.236384    -4.898252    9.273556    -5.456700    2.434982    -9.452650    19.959484    0.000000    0.000000    0.000000    -1.466624    -5.594187    -0.127223    5.353873    14.616888    -0.758134    -1.085606    -7.449122    -8.930786    0.000000    0.000000    0.000000    
19.334599    88.667336    47.115429    -2.044330    -1.749815    86.809219    0.279688    -4.228298    -0.210627    2.632426    2.990349    -0.289827    -2.140333    13.313465    0.996646    3.779822    0.730514    1.613050    18.830004    0.861186    7.210428    -17.966518    13.158146    -4.135693    3.188289    -9.333135    0.251462    -1.637741    -9.309473    -2.167087    -18.516455    -0.248368    4.693141    16.484678    8.183877    -0.424468    -0.474617    -3.603989    -0.173252    -2.061204    -3.694666    5.008303    2.661607    0.658756    -0.365528    -4.966897    9.302453    -5.292274    2.529111    -9.459613    19.988111    0.000000    0.000000    0.000000    -1.470078    -6.014063    0.075860    5.511495    15.250748    -0.878110    -0.851083    -7.547401    -8.830292    0.000000    0.000000    0.000000    
19.276937    88.670364    47.097538    -2.049757    -1.853096    86.675735    0.324502    -4.159364    -0.176147    2.800199    2.964333    -0.260273    -2.146228    13.315293    1.008940    3.716822    0.712150    1.617930    18.781040    0.849980    7.226471    -18.047434    13.271463    -4.053936    3.164073    -9.308243    0.190136    -1.562773    -9.283758    -2.204139    -18.603281    -0.305806    4.735867    16.410788    8.114813    -0.384320    -0.491942    -3.567492    -0.141363    -2.271808    -3.665854    4.936893    2.772707    0.647044    -0.475116    -5.031077    9.268728    -5.040606    2.576617    -9.457825    19.969278    0.000000    0.000000    0.000000    -1.481750    -6.490637    0.394912    5.713300    15.962960    -1.058624    -0.657585    -7.641199    -8.718741    0.000000    0.000000    0.000000    
19.220346    88.667313    47.088932    -2.063039    -1.988263    86.495178    0.398910    -4.120230    -0.128301    2.976437    2.964387    -0.219954    -2.193983    13.337024    1.028971    3.701661    0.678688    1.638652    18.719067    0.831848    7.244985    -18.098888    13.345186    -3.978686    3.099697    -9.195743    0.139427    -1.629472    -9.168743    -2.188131    -18.688860    -0.367228    4.836711    16.338366    8.043475    -0.376237    -0.492126    -3.483857    -0.152897    -2.411073    -3.589796    5.008941    2.954180    0.665795    -0.534569    -5.148754    9.208358    -4.910277    2.704308    -9.474689    20.058805    0.000000    0.000000    0.000000    -1.460226    -7.008516    0.775524    5.944546    16.669645    -1.387718    -0.422378    -7.685732    -8.417103    0.000000    0.000000    0.000000    
19.167694    88.667336    47.072647    -2.064453    -2.069590    86.334259    0.444026    -4.085649    -0.100776    3.126434    2.988829    -0.198609    -2.346205    13.398693    1.028935    3.838969    0.565712    1.663962    18.643139    0.813800    7.297678    -18.143520    13.452580    -3.896513    3.097223    -9.113241    0.054673    -1.779196    -9.081054    -2.194734    -18.807440    -0.392749    4.956603    16.286287    7.966015    -0.348430    -0.490099    -3.448727    -0.179318    -2.426352    -3.556771    5.072370    3.052349    0.699939    -0.609585    -5.231260    9.125592    -4.748004    2.772867    -9.467528    20.127445    0.000000    0.000000    0.000000    -1.504848    -7.521990    1.054850    6.020918    17.561638    -1.283597    0.026656    -7.942714    -8.089533    0.000000    0.000000    0.000000    
19.116556    88.668495    47.048424    -2.065134    -2.102354    86.208344    0.465762    -4.064137    -0.084343    3.225721    3.032958    -0.186787    -2.347244    13.367539    1.067297    3.787135    0.584360    1.696902    18.610474    0.787171    7.363352    -18.195427    13.537149    -3.849743    3.099497    -9.038405    -0.027715    -1.983536    -9.001501    -2.114700    -18.905348    -0.425074    5.058440    16.247541    7.932750    -0.319665    -0.518049    -3.469716    -0.201179    -2.319010    -3.574044    5.115838    3.075039    0.723878    -0.708909    -5.261828    9.006923    -4.326392    2.735440    -9.432102    19.894556    0.000000    0.000000    0.000000    -1.615579    -8.039563    1.225536    6.106805    18.365803    -1.057088    0.308127    -8.056691    -7.763621    0.000000    0.000000    0.000000    
19.068903    88.659050    47.027901    -2.055626    -2.136329    86.034340    0.530007    -4.048553    -0.047617    3.270167    3.110980    -0.156002    -2.323126    13.280970    1.121390    3.682244    0.645715    1.737976    18.586327    0.726131    7.469936    -18.222481    13.599228    -3.837969    3.063370    -8.965499    -0.041996    -2.107167    -8.923689    -2.240446    -19.021730    -0.449265    5.156473    16.234167    7.926154    -0.262819    -0.486668    -3.477612    -0.272204    -2.339262    -3.586200    5.268259    3.100994    0.763440    -0.770159    -5.310272    8.952074    -4.302032    2.810748    -9.457009    20.104685    0.000000    0.000000    0.000000    -1.706022    -8.533194    1.508427    6.127224    19.246204    -0.887401    0.506176    -8.300117    -7.224980    0.000000    0.000000    0.000000    
